<?xml version="1.0"?><svg xmlns="http://www.w3.org/2000/svg"  viewBox="0 0 50 50" width="500px" height="500px">    <path d="M 29.625 2 C 22.396 2 18.870422 5.6019531 17.732422 9.7519531 C 16.770422 8.7699531 15.305969 8 13.167969 8 C 9.5999688 8 6 10.087 6 14.75 C 6 16.618 7.1038594 18.374641 8.6308594 19.306641 C 7.3628594 20.242641 6 21.71 6 24 C 6 25.528 6.4613281 26.713141 7.1113281 27.619141 C 7.9023281 27.226141 8.798 27 9.75 27 C 10.582 27 11.419797 27.136391 12.216797 27.400391 C 12.952797 27.136391 13.728 27 14.5 27 C 15.361 27 16.209 27.161656 17 27.472656 C 17.791 27.161656 18.639 27 19.5 27 C 20.361 27 21.209 27.161656 22 27.472656 C 22.791 27.161656 23.639 27 24.5 27 C 25.361 27 26.209 27.161656 27 27.472656 C 27.791 27.161656 28.639 27 29.5 27 C 30.361 27 31.209 27.161656 32 27.472656 C 32.791 27.161656 33.639 27 34.5 27 C 35.272 27 36.046203 27.136391 36.783203 27.400391 C 37.579203 27.136391 38.418 27 39.25 27 C 40.564 27 41.771234 27.428625 42.740234 28.140625 C 42.816234 28.054625 42.908484 27.938391 43.021484 27.775391 C 43.994484 26.353391 44 24.883 44 24.25 C 44 21.118 42.743641 19.294844 41.306641 18.464844 C 41.923641 16.594844 42 14.111 42 13 C 42 6.317 37.143 2 29.625 2 z M 17.5 16 C 18.881 16 20 17.119 20 18.5 C 20 19.881 18.881 21 17.5 21 C 16.119 21 15 19.881 15 18.5 C 15 17.119 16.119 16 17.5 16 z M 33.5 16 C 34.881 16 36 17.119 36 18.5 C 36 19.881 34.881 21 33.5 21 C 32.119 21 31 19.881 31 18.5 C 31 17.119 32.119 16 33.5 16 z M 18 17 A 1 1 0 0 0 17 18 A 1 1 0 0 0 18 19 A 1 1 0 0 0 19 18 A 1 1 0 0 0 18 17 z M 34 17 A 1 1 0 0 0 33 18 A 1 1 0 0 0 34 19 A 1 1 0 0 0 35 18 A 1 1 0 0 0 34 17 z M 23 21 L 28 21 C 28.552 21 29 21.448 29 22 C 29 23.657 27.657 25 26 25 L 25 25 C 23.343 25 22 23.657 22 22 C 22 21.448 22.448 21 23 21 z M 9.75 29 C 7.682 29 6 30.57 6 32.5 C 6 32.59 6.0111563 32.679625 6.0351562 32.765625 L 10.035156 47.265625 C 10.155156 47.698625 10.55 48 11 48 L 38 48 C 38.45 48 38.844844 47.698625 38.964844 47.265625 L 42.964844 32.765625 C 42.988844 32.679625 43 32.59 43 32.5 C 43 30.57 41.318 29 39.25 29 C 38.332 29 37.476047 29.221406 36.748047 29.566406 C 36.081047 29.214406 35.315 29 34.5 29 C 33.583 29 32.72 29.258313 32 29.695312 C 31.28 29.258312 30.417 29 29.5 29 C 28.583 29 27.72 29.258313 27 29.695312 C 26.28 29.258312 25.417 29 24.5 29 C 23.583 29 22.72 29.258313 22 29.695312 C 21.28 29.258312 20.417 29 19.5 29 C 18.583 29 17.72 29.258313 17 29.695312 C 16.28 29.258312 15.417 29 14.5 29 C 13.685 29 12.918953 29.214406 12.251953 29.566406 C 11.523953 29.221406 10.668 29 9.75 29 z M 9.75 31 C 11.065 31 11.892203 31.562719 12.158203 31.886719 L 14.695312 46 L 11.761719 46 L 8.0058594 32.384766 C 8.0778594 31.622766 8.847 31 9.75 31 z M 19.5 31 C 20.703 31 21.742 31.763 22 32.625 C 21.993 32.625 22.46875 46 22.46875 46 L 18.640625 46 L 17.150391 32.380859 C 17.493391 31.625859 18.414 31 19.5 31 z M 29.5 31 C 30.594 31 31.514516 31.630672 31.853516 32.388672 L 30.410156 46 L 26.53125 46 C 26.53125 46 27.007 32.624 27 32.625 C 27.255 31.762 28.29 31 29.5 31 z M 39.25 31 C 40.153 31 40.922141 31.622766 40.994141 32.384766 L 37.238281 46 L 34.304688 46 L 36.839844 31.886719 C 37.106844 31.562719 37.935 31 39.25 31 z"/></svg>